<svg width="19" height="18" viewBox="0 0 19 18" fill="none" xmlns="http://www.w3.org/2000/svg">
<path d="M18.7396 2.27617C18.046 2.62639 17.3525 2.83652 16.5328 2.97661C17.2894 2.41626 17.9199 1.64577 18.2352 0.665142C17.4786 1.15545 16.6589 1.50568 15.8393 1.71581C15.1457 0.875276 14.1369 0.384964 13.0651 0.384964C10.9844 0.384964 9.219 2.27617 9.219 4.65769C9.219 5.00791 9.28205 5.28809 9.3451 5.63831C6.1926 5.49822 3.35535 3.74711 1.46385 1.2255C1.1486 1.71581 0.959449 2.41626 0.959449 3.18675C0.959449 4.65769 1.653 5.98853 2.6618 6.68898C2.0313 6.68898 1.46385 6.47885 0.959449 6.12862V6.19867C0.959449 8.22996 2.2835 9.98108 4.0489 10.3313C3.73365 10.4013 3.4184 10.4714 3.0401 10.4714C2.7879 10.4714 2.5357 10.4714 2.34655 10.4013C2.85095 12.0824 4.23805 13.3432 5.9404 13.3432C4.61635 14.4639 2.97705 15.1644 1.21165 15.1644C0.896399 15.1644 0.581149 15.1644 0.328949 15.0943C1.84215 16.4252 3.85975 17.1256 6.00345 17.1256C13.002 17.1256 16.8481 10.6815 16.8481 5.07795V4.5176C17.6047 3.88719 18.2352 3.18675 18.7396 2.27617Z" fill="#0A66C2"/>
</svg>
